<?xml version="1.0" encoding="utf-8"?>
<!-- Generator: Adobe Illustrator 18.1.1, SVG Export Plug-In . SVG Version: 6.00 Build 0)  -->
<svg version="1.1" id="Layer_1" xmlns="http://www.w3.org/2000/svg" xmlns:xlink="http://www.w3.org/1999/xlink" x="0px" y="0px"
	enable-background="new 0 0 80 80" xml:space="preserve">
<g>
	<g>
		<path fill="#24a09d" d="M30.4,24.5c1.8-2.2,1.5-5.4-0.7-7.2c-2.2-1.8-5.5-1.5-7.3,0.7c-1.8,2.2-1.5,5.4,0.7,7.2C25.4,26.9,28.6,26.6,30.4,24.5z
			 M72.4,43.1l-20.9-9.6c-0.3-0.1-0.5-0.2-0.8-0.3c-0.1-0.1-0.3-0.3-0.4-0.4l-9.7-8l4.3-10c0.3-0.8,0.3-1.7-0.2-2.5
			c-0.5-0.7-1.3-1.2-2.2-1.2L31.7,11c-1.5,0-2.7,1.1-2.7,2.6c0,1.5,1.1,2.7,2.6,2.7l6.9,0.2l-3.3,7.5c-0.4,0.2-0.7,0.5-1,0.9
			l-3.1,3.7L8.5,25.2c-1.4-0.2-2.8,0.8-3,2.2c-0.2,1.4,0.8,2.8,2.2,3l23.5,3.4c0.1,0.1,0.2,0.2,0.3,0.3l10.5,8.6
			c0.3,0.3,0.7,0.5,1.1,0.6c0,0,0,0.1,0.1,0.1l13.8,19c0.6,0.8,1.5,1.3,2.4,1.5c0.9,0.1,1.9-0.1,2.7-0.6c1.6-1.2,2-3.4,0.8-5.1
			L50.4,41l18.9,8.7c0.3,0.2,0.7,0.3,1,0.3c1.6,0.2,3.1-0.6,3.8-2.1C75,46.1,74.2,44,72.4,43.1z M16.1,41.5
			c-6.6,5.7-7.2,15.7-1.4,22.2c5.8,6.5,15.8,7.1,22.4,1.4c6.6-5.8,7.2-15.7,1.4-22.2C32.7,36.4,22.7,35.8,16.1,41.5z M32.5,41.8
			c-0.5,1-1.1,1.8-2,2.6c-3.5,3.1-8.8,2.7-11.9-0.7c-0.1-0.1-0.2-0.2-0.3-0.3C22.4,39.9,28,39.5,32.5,41.8z M16.9,44.6
			c0.1,0.1,0.2,0.2,0.2,0.3c3.8,4.3,10.4,4.7,14.7,0.9c1-0.9,1.8-1.9,2.4-3c0.5,0.3,0.9,0.7,1.4,1.1c-0.6,1.9-1.7,3.6-3.3,5
			c-4.7,4.1-11.9,3.7-16-1c-0.3-0.4-0.6-0.8-0.9-1.2C15.8,46,16.3,45.3,16.9,44.6z M14.4,48.7c0.1,0.2,0.3,0.3,0.4,0.5
			c4.9,5.4,13.3,6,18.8,1.1c1.6-1.4,2.7-3,3.4-4.8c0.5,0.6,0.9,1.3,1.3,2c-0.7,2.1-2,4.1-3.8,5.7c-5.7,5-14.3,4.4-19.3-1.2
			c-0.5-0.5-0.9-1.1-1.3-1.7C14,49.8,14.2,49.2,14.4,48.7z M35.3,63c-5.4,4.7-13.7,4.2-18.4-1.1c-0.7-0.7-1.2-1.5-1.7-2.4
			c5.8,5.5,15,5.7,21.1,0.4c1.3-1.1,2.3-2.4,3.1-3.7C38.8,58.7,37.4,61.1,35.3,63z M39.4,50.5c-0.5,2.9-2,5.8-4.4,7.9
			c-5.7,4.9-14.3,4.4-19.3-1.2c-0.8-0.9-1.5-2-2-3c0-0.3,0-0.6,0-1c0,0.1,0.1,0.1,0.1,0.2c5.7,6.4,15.6,7,22.1,1.3
			c1.5-1.3,2.7-2.8,3.5-4.5C39.3,50.3,39.4,50.4,39.4,50.5z M26.3,43.1c1.1-0.9-0.4-2.6-1.5-1.7C23.8,42.4,25.3,44.1,26.3,43.1z"/>
	</g>
</g>
</svg>
