<?xml version="1.0" encoding="utf-8"?>
<!-- Generator: Adobe Illustrator 18.1.1, SVG Export Plug-In . SVG Version: 6.00 Build 0)  -->
<svg version="1.1" id="Layer_1" xmlns="http://www.w3.org/2000/svg" xmlns:xlink="http://www.w3.org/1999/xlink" x="0px" y="0px"
	enable-background="new 0 0 80 80" xml:space="preserve">
<g>
	<g>
		<path fill="#24a09d" d="M63.4,62.3h4.3V44.2h-4.3V62.3z M57.7,51H37.2v-6.8h-4.3v18.1h4.3v-6.8h20.5v6.8h4.3V44.2h-4.3V51z M73.3,50.9V47H69v12.4
			h4.3v-3.9H75v-4.6H73.3z M31.5,44.2h-4.3v18.1h4.3V44.2z M21.6,59.4h4.3V47h-4.3v3.9h-1.7v4.6h1.7V59.4z M37.8,39.9
			c0.8,0,1.4,0.1,2.1,0.3c-1.5-6-1.4-10.6,0.6-13.2c0.5-0.7,1.1-1.2,1.8-1.6c1.3,0.2,2.8-0.4,3.8-1.8l7.5-9.8c1.4-1.8,1.4-4.1,0-5.2
			c-0.2-0.1-0.4-0.2-0.6-0.3c-1.4-0.6-3.2,0.1-4.4,1.6l-7.5,9.8c-0.9,1.2-1.2,2.6-0.9,3.7c-0.7,0.5-1.3,1.1-1.9,1.9
			c-2.4,3.3-2.9,8.3-1.4,14.7C37.1,39.9,37.5,39.9,37.8,39.9z M42.9,21.1l7.5-9.8c0.5-0.7,1.2-0.9,1.5-0.7c0,0,0.1,0,0.1,0
			c0.2,0.1,0.2,0.4,0.2,0.5c0,0.4-0.2,0.8-0.5,1.2l-7.5,9.8c-0.5,0.7-1.2,0.9-1.5,0.7c0,0-0.1,0-0.1-0.1c-0.2-0.1-0.2-0.4-0.2-0.5
			C42.5,21.9,42.6,21.5,42.9,21.1z M43.4,66.9c-11.4,4.5-31.2,1.9-35.1-7C8,59.1,7.7,58,8.1,57.3c0.8-1.2,3.9-1.6,7.4-1.7
			c-0.1-0.7-0.2-1.4-0.2-2.1c0-0.1,0-0.2,0-0.2c0-0.1,0-0.3,0-0.4c0-0.1,0-0.2,0-0.2c-4.4,0.2-8,0.8-9.5,3.2c-1,1.5-1,3.3,0,5.5
			c1.5,3.4,4.8,6,9.1,7.8c8.6,3.6,20.9,3.9,29.4,0.5c5.3-2.1,8.8-5.5,10-9.6h-3C49.9,63.5,46.5,65.6,43.4,66.9z M69.3,18.1
			c-0.2-0.3-0.5-0.5-0.9-0.6c-1.2-0.5-2.9-0.1-4.2,1.2l-8.7,8.7c-1.3,1.3-1.8,3.2-1.2,4.5c-2,2.8-3.9,7.6-3.5,15.8h2.9
			c-0.4-7.7,1.4-12,3-14.2c1,0,2.2-0.5,3.1-1.4l8.7-8.7C70.2,21.7,70.5,19.4,69.3,18.1z M67.6,20.5c-0.1,0.4-0.3,0.8-0.6,1.1
			l-8.7,8.7c-0.5,0.5-1.2,0.7-1.5,0.6c0,0-0.1-0.1-0.1-0.1c-0.2-0.2-0.1-1,0.5-1.7l8.7-8.7c0.5-0.5,1.2-0.7,1.5-0.6
			c0,0,0.1,0.1,0.1,0.1C67.6,20.1,67.6,20.3,67.6,20.5z"/>
	</g>
</g>
</svg>
