<?xml version="1.0" encoding="utf-8"?>
<!-- Generator: Adobe Illustrator 18.1.1, SVG Export Plug-In . SVG Version: 6.00 Build 0)  -->
<svg version="1.1" id="Layer_1" xmlns="http://www.w3.org/2000/svg" xmlns:xlink="http://www.w3.org/1999/xlink" x="0px" y="0px"
	enable-background="new 0 0 80 80" xml:space="preserve">
<g>
	<g>
		<path fill="#24a09d" d="M15.9,24.8c-5.1-2.6-7.9,6.3-7.9,6.3s1.2,7.4,6,12.2C15.9,40.5,20.9,27.4,15.9,24.8z M14.2,19.2c1.1,0,2.3,0.3,3.4,0.9
			c1.2,0.6,2.8,1.9,3.6,4.6c5.3-0.9,10.2-2.6,11.1-4.2c2-3.6,0.2-7.2-2.4-8.7c-2.6-1.5-15.2-0.7-18.8,0.8c-3.6,1.5-6.5,7.5-4.2,11.3
			c0,0.1,0.1,0.1,0.1,0.2C8.5,21.6,10.9,19.2,14.2,19.2z M30.5,27.1c-2.3,1-5.2,1.7-7.8,2.2l0,0c0.3,5.9-3.2,14.1-4.6,16.2l-1.2,1.8
			l1.7,10.1l8.7-0.9l6.3-9.2L30.5,27.1z M38,48.7l-7.9,11.2c7.5,7.7,16.5,9.1,16.5,9.1s5.9-8.9,7.1-10.8C42.5,55.2,38,48.7,38,48.7z
			 M54.5,17.7c-5.8,2.3-13.8,27-13.8,27l0.1,0.4c0,0,9.1,8.9,15.9,9.5c0,0,17.6-17.6,17.3-22.7C73.7,26.9,60.3,15.4,54.5,17.7z
			 M45.3,23.7c-0.9-0.1-6.5-0.9-5.4,11.4C39.9,35.2,41.4,28,45.3,23.7z"/>
	</g>
</g>
</svg>
