<?xml version="1.0" encoding="utf-8"?>
<!-- Generator: Adobe Illustrator 18.1.1, SVG Export Plug-In . SVG Version: 6.00 Build 0)  -->
<svg version="1.1" id="Layer_1" xmlns="http://www.w3.org/2000/svg" xmlns:xlink="http://www.w3.org/1999/xlink" x="0px" y="0px"
	 enable-background="new 0 0 80 80" xml:space="preserve">
<g>
	<g>
		<path fill="#24a09d" d="M57.4,74h4v-1.8h-4V74z M13.9,74h4v-1.8h-4V74z M60.6,14.6c-9.5-1.4-7.8,2.9-7.8,2.9l10,1.1l-4.5,25.1
			c-0.4,0-0.8,0-1.2,0.1l-9,0.8L29.4,26.4l1.9-10.5h0l0.3-1.9l-12.3-2.2L9.2,6L8,8.5l10.5,6.3l9.2,1.7L25,31.7
			c-0.4,0-0.8-0.1-1.2-0.1c-2.7,0-5.5,0.7-8,2.1C7.9,38.3,5.2,48.2,9.6,56c2.2,3.8,5.7,6.5,9.6,7.6l-0.6,3.6h-7.4v3.4h52.2v-3.4
			h-5.8l1.4-8.1c4-0.4,7.1-3.7,7.1-7.8c0-3.1-1.8-5.8-4.4-7l4.4-24.7c2.8,0.6,6.1,0.2,6.1,0.2C74.7,10.7,62.2,14.6,60.6,14.6z
			 M29,28.8l16.4,15.9l-5.6,0.5c-0.3-1.8-0.9-3.6-1.9-5.3c-2.2-3.8-5.6-6.4-9.5-7.6L29,28.8z M26.7,46.3l5.1-8
			c1.1,0.9,2.1,2.1,2.8,3.4c0.7,1.2,1.2,2.5,1.4,3.8L26.7,46.3z M35.3,53c-0.4,0.9-0.9,1.9-1.6,2.7l-4.6-4.4L35.3,53z M17.5,37
			c1.9-1.1,4-1.7,6.2-1.7c2.9,0,5.7,1,7.9,2.8l-7.8,8.3l-9.7-6.6C15,38.7,16.2,37.8,17.5,37z M12.8,54.2c-2.6-4.6-2-10.3,1.2-14.2
			l8.4,8.4l0,0L16,57.9C14.7,56.9,13.6,55.6,12.8,54.2z M16.2,58.1l8-8l9.3,6c-0.9,1.2-2.1,2.2-3.5,2.9c-1.9,1.1-4,1.7-6.2,1.7
			C21,60.6,18.4,59.7,16.2,58.1z M54.1,67.2h-32l0.5-3c0.4,0,0.8,0,1.1,0c2.7,0,5.5-0.7,8-2.1c3.3-1.9,5.7-4.8,7.1-8.1l15.8,4.3
			c0.3,0.2,0.6,0.3,1,0.4L54.1,67.2z M63.8,51.4c0,3-2.5,5.5-5.5,5.5c-3,0-5.5-2.5-5.5-5.5c0-3,2.5-5.5,5.5-5.5
			C61.4,45.9,63.8,48.4,63.8,51.4z"/>
	</g>
</g>
</svg>
