<?xml version="1.0" encoding="utf-8"?>
<!-- Generator: Adobe Illustrator 18.1.1, SVG Export Plug-In . SVG Version: 6.00 Build 0)  -->
<svg version="1.1" id="Layer_1" xmlns="http://www.w3.org/2000/svg" xmlns:xlink="http://www.w3.org/1999/xlink" x="0px" y="0px"
	 viewBox="0 0 216.1 80" enable-background="new 0 0 216.1 80" xml:space="preserve">
<g>
	<g>
		<g>
			<g>
				<g>
					<path fill="#1E9F9C" d="M23.4,27.5L23.4,27.5L32,5.1h9.8v4l-1.6,0.1c-0.9,0.1-1.5,0.4-1.4,1.7l1.2,22.6l3.1,0.1V38H31.1v-4
						l1.8-0.1c0.8,0,1.3-0.3,1.3-1.3l-0.9-17.4h-0.1l-7.6,19.7h-4.7l-7.5-19.5h-0.1l-1,18.3l3.2,0.1V38H3.8v-4l1.8-0.1
						c0.7,0,1.2-0.5,1.2-1.3l1.3-23l-3-0.2V5.1H15L23.4,27.5z"/>
					<path fill="#1E9F9C" d="M55.3,9.4l-3.1-0.3v-4h11.3l10.1,28.5h0l2.8,0.1V38H63.7v-4l1.9-0.1c1-0.1,1.5-0.4,1.2-1.5l-1-3.1H54.2
						l-1.5,4.3l3,0.1V38H44.3v-4l1.6-0.1c0.8-0.1,1.1-0.4,1.5-1.4L55.3,9.4z M55.4,24.7h9.2l-4.4-14.1H60L55.4,24.7z"/>
					<path fill="#1E9F9C" d="M77.8,34l1.6-0.1c0.8-0.1,1.4-0.4,1.4-1.4v-23L78,9.3V5.1h13.5c7.3,0,11.9,2.4,11.9,9.1
						c0,4.9-3.2,7.6-5.9,8.7c1.3,0.5,2.1,1.3,2.8,3l3.6,7.8l2.8,0.1V38H94.4v-4l1.4-0.1c1.1-0.1,1.4-0.6,0.9-1.6l-2.3-4.9
						c-0.7-1.5-1.4-2.3-3.1-2.3h-4.5v8.6l3.2,0.1V38H77.8V34z M91.2,20.3c4.2,0,6.1-1.9,6.1-5.4c0-4.4-2.6-5-6.8-5h-3.6v10.4H91.2z"
						/>
					<path fill="#1E9F9C" d="M119.6,38.6c-8.8,0-14.3-5.7-14.3-17c0-12.6,8-17.1,14.9-17.1c7.4,0,14,4.5,14,17.1
						C134.1,32.9,128.2,38.6,119.6,38.6z M119.9,33.6c6.3,0,8.1-5.9,8.1-11.9c0-5-1.3-12.1-8.2-12.1c-6.3,0-8.4,5.9-8.4,11.8
						C111.4,27,112.8,33.6,119.9,33.6z"/>
					<path fill="#1E9F9C" d="M142.3,27.3c0,4.8,2.5,6.3,6.5,6.3c4,0,6.4-2,6.4-6V9.5l-2.9-0.1V5.1H164v4l-1.6,0.1
						c-0.9,0.1-1.4,0.5-1.4,1.5v17.6c0,6.5-4.9,10.2-12.4,10.2c-8.1,0-12.2-3.3-12.2-11V9.5l-2.9-0.1V5.1h12v4l-1.6,0.1
						c-0.9,0.1-1.5,0.4-1.5,1.6V27.3z"/>
					<path fill="#1E9F9C" d="M165.3,38v-4l1.6-0.1c0.8-0.1,1.4-0.4,1.4-1.4v-23l-2.8-0.1V5.1h22.6v8.2l-5,0.3v-2
						c0-0.9-0.1-1.5-1.4-1.5h-7.3v8.4h11.4v5h-11.4v9.2h8c1.3,0,1.4-0.6,1.4-1.6v-2.5l5,0.3V38H165.3z"/>
					<path fill="#1E9F9C" d="M205.9,28.8c0-3.1-2.8-4-6.3-4.9c-4.9-1.3-9.4-3.3-9.4-9.6c0-6,4.6-9.7,11.5-9.7c3.3,0,6.3,0.6,9.3,2
						V14l-5,0.3v-2.9c0-0.9-0.1-1.3-1-1.6c-0.9-0.3-2.2-0.4-3.2-0.4c-2.9,0-5.2,1.2-5.2,4.2s2.9,3.9,6.6,5c4.5,1.4,9.2,3.5,9.2,9.8
						c0,6.5-5.1,10.1-12,10.1c-4,0-7-0.6-10-2v-7.8l5-0.3v3c0,0.9,0.1,1.3,1,1.6c0.9,0.3,2.2,0.4,3.6,0.4
						C203.3,33.5,205.9,32.5,205.9,28.8z"/>
				</g>
				<g>
					<g>
						<g>
							<path fill="#444D58" d="M127.6,74.7h-3.5l-0.8-3.7c-3,3.4-5.7,4.5-9.5,4.5c-9.5,0-15.1-7.5-15.1-16.5s5.7-16.5,15.1-16.5
								c6.9,0,12.7,3.7,13.5,10.8h-5.4c-0.5-4.2-4.2-6.3-8.1-6.3c-6.8,0-9.6,6-9.6,12c0,6.1,2.8,12,9.6,12c5.7,0.1,8.7-3.3,8.8-8.7
								h-8.4v-4.2h13.4V74.7z"/>
						</g>
					</g>
					<g>
						<g>
							<path fill="#444D58" d="M137,62.3l-19.5-34.1h6.4l16,29.1l8.2-14.1h6.2l-11.8,19.2v12.4H137V62.3z"/>
						</g>
					</g>
					<g>
						<g>
							<path fill="#444D58" d="M156.3,43.2h7.8l8.7,24.7h0.1l8.5-24.7h7.7v31.5h-5.3V50.4h-0.1l-8.7,24.3h-4.5l-8.7-24.3h-0.1v24.3
								h-5.3V43.2z"/>
						</g>
					</g>
				</g>
			</g>
		</g>
	</g>
</g>
</svg>
