<?xml version="1.0" encoding="utf-8"?>
<!-- Generator: Adobe Illustrator 18.1.1, SVG Export Plug-In . SVG Version: 6.00 Build 0)  -->
<svg version="1.1" id="Layer_1" xmlns="http://www.w3.org/2000/svg" xmlns:xlink="http://www.w3.org/1999/xlink" x="0px" y="0px"
	 viewBox="0 0 213 89.7" enable-background="new 0 0 213 89.7" xml:space="preserve">
<g>
	<g>
		<g>
			<g>
				<g>
					<path fill="#FFFFFF" d="M9.9,11.7c0,0.4,0.1,0.6,0.4,0.6c0.1,0,0.2,0,0.4,0v1.2c-0.3,0.1-0.8,0.2-1.1,0.2c-0.7,0-1.2-0.2-1.4-1
						c-0.7,0.7-1.8,1-2.8,1c-1.4,0-2.7-0.8-2.7-2.3c0-2,1.6-2.3,3.1-2.5c1.3-0.2,2.4-0.1,2.4-1.1c0-0.9-0.9-1.1-1.7-1.1
						c-1,0-1.7,0.4-1.8,1.3H3c0.1-2.1,1.9-2.7,3.7-2.7c1.6,0,3.2,0.6,3.2,2.3V11.7z M8.1,9.5C7.6,9.8,6.7,9.8,6,9.9
						c-0.8,0.1-1.4,0.4-1.4,1.3c0,0.8,1,1,1.6,1c0.8,0,2-0.4,2-1.5V9.5z"/>
					<path fill="#FFFFFF" d="M21.4,8.1c-0.1-1-0.9-1.5-1.8-1.5c-0.9,0-2.2,0.5-2.2,2.9c0,1.3,0.6,2.7,2.1,2.7c1,0,1.7-0.7,1.9-1.8
						h1.8c-0.3,2.1-1.6,3.2-3.7,3.2c-2.5,0-3.9-1.8-3.9-4.1c0-2.4,1.3-4.3,4-4.3c1.9,0,3.4,0.9,3.6,2.9H21.4z"/>
					<path fill="#FFFFFF" d="M35.6,11.7c0,0.4,0.1,0.6,0.4,0.6c0.1,0,0.2,0,0.4,0v1.2c-0.3,0.1-0.8,0.2-1.1,0.2
						c-0.7,0-1.2-0.2-1.4-1c-0.7,0.7-1.8,1-2.8,1c-1.4,0-2.7-0.8-2.7-2.3c0-2,1.6-2.3,3.1-2.5c1.3-0.2,2.4-0.1,2.4-1.1
						c0-0.9-0.9-1.1-1.7-1.1c-1,0-1.7,0.4-1.8,1.3h-1.8c0.1-2.1,1.9-2.7,3.7-2.7c1.6,0,3.2,0.6,3.2,2.3V11.7z M33.8,9.5
						c-0.5,0.4-1.4,0.3-2.2,0.5c-0.8,0.1-1.4,0.4-1.4,1.3c0,0.8,1,1,1.6,1c0.8,0,2-0.4,2-1.5V9.5z"/>
					<path fill="#FFFFFF" d="M49.2,13.5h-1.7v-1.1h0c-0.5,0.9-1.5,1.3-2.5,1.3c-2.5,0-3.8-1.9-3.8-4.3c0-2.9,1.7-4.2,3.5-4.2
						c1,0,2.1,0.4,2.7,1.3h0V2.4h1.8V13.5z M45.3,12.3c1.6,0,2.3-1.4,2.3-2.8c0-1.8-0.9-2.8-2.2-2.8c-1.7,0-2.3,1.5-2.3,2.9
						C43.1,10.9,43.7,12.3,45.3,12.3z"/>
					<path fill="#FFFFFF" d="M56.7,9.9c0,1.3,0.7,2.4,2.2,2.4c1,0,1.6-0.5,2-1.3h1.7c-0.4,1.8-1.9,2.7-3.6,2.7
						c-2.5,0-3.9-1.8-3.9-4.2c0-2.3,1.5-4.2,3.9-4.2c2.5,0,4.1,2.3,3.8,4.7H56.7z M60.9,8.8c-0.1-1.1-0.8-2.1-2-2.1
						c-1.2,0-2.1,0.9-2.1,2.1H60.9z"/>
					<path fill="#FFFFFF" d="M68.2,5.4h1.7v1.1h0c0.5-0.8,1.2-1.3,2.5-1.3c1,0,1.9,0.4,2.3,1.3c0.6-0.8,1.4-1.3,2.5-1.3
						c1.7,0,2.7,0.7,2.7,2.7v5.5h-1.8V8.8c0-1.3-0.1-2.2-1.5-2.2c-1.2,0-1.7,0.8-1.7,2.1v4.7h-1.8V8.3c0-1.1-0.3-1.7-1.4-1.7
						c-0.9,0-1.8,0.7-1.8,2.1v4.8h-1.8V5.4z"/>
					<path fill="#FFFFFF" d="M85.9,2.4h1.8v1.7h-1.8V2.4z M85.9,5.4h1.8v8h-1.8V5.4z"/>
					<path fill="#FFFFFF" d="M100.6,11.7c0,0.4,0.1,0.6,0.4,0.6c0.1,0,0.2,0,0.4,0v1.2c-0.3,0.1-0.8,0.2-1.1,0.2
						c-0.7,0-1.2-0.2-1.4-1c-0.7,0.7-1.8,1-2.8,1c-1.4,0-2.7-0.8-2.7-2.3c0-2,1.6-2.3,3.1-2.5c1.3-0.2,2.4-0.1,2.4-1.1
						c0-0.9-0.9-1.1-1.7-1.1c-1,0-1.7,0.4-1.8,1.3h-1.8c0.1-2.1,1.9-2.7,3.7-2.7c1.6,0,3.2,0.6,3.2,2.3V11.7z M98.8,9.5
						c-0.5,0.4-1.4,0.3-2.2,0.5c-0.8,0.1-1.4,0.4-1.4,1.3c0,0.8,1,1,1.6,1c0.8,0,2-0.4,2-1.5V9.5z"/>
				</g>
				<g>
					<path fill="#FFFFFF" d="M21.9,39.3L21.9,39.3L30.4,17h9.8v4l-1.6,0.1c-0.9,0.1-1.5,0.4-1.4,1.7l1.2,22.6l3.1,0.1v4.2H29.6v-4
						l1.8-0.1c0.8,0,1.3-0.3,1.3-1.3L31.7,27h-0.1L24,46.7h-4.7l-7.5-19.5h-0.1l-1,18.3l3.2,0.1v4.2H2.2v-4L4,45.7
						c0.7,0,1.2-0.5,1.2-1.3l1.3-23l-3-0.2V17h9.9L21.9,39.3z"/>
					<path fill="#FFFFFF" d="M53.8,21.3L50.7,21v-4H62l10.1,28.5h0l2.8,0.1v4.2H62.2v-4l1.9-0.1c1-0.1,1.5-0.4,1.2-1.5l-1-3.1H52.7
						l-1.5,4.3l3,0.1v4.2H42.8v-4l1.6-0.1c0.8-0.1,1.1-0.4,1.5-1.4L53.8,21.3z M53.9,36.6h9.2l-4.4-14.1h-0.1L53.9,36.6z"/>
					<path fill="#FFFFFF" d="M76.3,45.9l1.6-0.1c0.8-0.1,1.4-0.4,1.4-1.4v-23l-2.8-0.1V17H90c7.3,0,11.9,2.4,11.9,9.1
						c0,4.9-3.2,7.6-5.9,8.7c1.3,0.5,2.1,1.3,2.8,3l3.6,7.8l2.8,0.1v4.2H92.9v-4l1.4-0.1c1.1-0.1,1.4-0.6,0.9-1.6l-2.3-4.9
						c-0.7-1.5-1.4-2.3-3.1-2.3h-4.5v8.6l3.2,0.1v4.2H76.3V45.9z M89.6,32.2c4.2,0,6.1-1.9,6.1-5.4c0-4.4-2.6-5-6.8-5h-3.6v10.4
						H89.6z"/>
					<path fill="#FFFFFF" d="M118.1,50.5c-8.8,0-14.3-5.7-14.3-17c0-12.6,8-17.1,14.9-17.1c7.4,0,14,4.5,14,17.1
						C132.6,44.8,126.7,50.5,118.1,50.5z M118.4,45.5c6.3,0,8.1-5.9,8.1-11.9c0-5-1.3-12.1-8.2-12.1c-6.3,0-8.4,5.9-8.4,11.8
						C109.9,38.9,111.3,45.5,118.4,45.5z"/>
					<path fill="#FFFFFF" d="M140.7,39.2c0,4.8,2.5,6.3,6.5,6.3c4,0,6.4-2,6.4-6V21.4l-2.9-0.1V17h11.7v4l-1.6,0.1
						c-0.9,0.1-1.4,0.5-1.4,1.5v17.6c0,6.5-4.9,10.2-12.4,10.2c-8.1,0-12.2-3.3-12.2-11V21.4l-2.9-0.1V17h12v4l-1.6,0.1
						c-0.9,0.1-1.5,0.4-1.5,1.6V39.2z"/>
					<path fill="#FFFFFF" d="M163.8,49.9v-4l1.6-0.1c0.8-0.1,1.4-0.4,1.4-1.4v-23l-2.8-0.1V17h22.6v8.2l-5,0.3v-2
						c0-0.9-0.1-1.5-1.4-1.5h-7.3v8.4h11.4v5h-11.4v9.2h8c1.3,0,1.4-0.6,1.4-1.6v-2.5l5,0.3v8.8H163.8z"/>
					<path fill="#FFFFFF" d="M204.4,40.7c0-3.1-2.8-4-6.3-4.9c-4.9-1.3-9.4-3.3-9.4-9.6c0-6,4.6-9.7,11.5-9.7c3.3,0,6.3,0.6,9.3,2
						v7.4l-5,0.3v-2.9c0-0.9-0.1-1.3-1-1.6c-0.9-0.3-2.2-0.4-3.2-0.4c-2.9,0-5.2,1.2-5.2,4.2s2.9,3.9,6.6,5c4.5,1.4,9.2,3.5,9.2,9.8
						c0,6.5-5.1,10.1-12,10.1c-4,0-7-0.6-10-2v-7.8l5-0.3v3c0,0.9,0.1,1.3,1,1.6c0.9,0.3,2.2,0.4,3.6,0.4
						C201.7,45.4,204.4,44.4,204.4,40.7z"/>
				</g>
				<g>
					<path fill="#FFFFFF" d="M126.1,86.6h-3.5l-0.8-3.7c-3,3.4-5.7,4.5-9.5,4.5c-9.5,0-15.1-7.5-15.1-16.5s5.7-16.5,15.1-16.5
						c6.9,0,12.7,3.7,13.5,10.8h-5.4c-0.5-4.2-4.2-6.3-8.1-6.3c-6.8,0-9.6,6-9.6,12c0,6.1,2.8,12,9.6,12c5.7,0.1,8.7-3.3,8.8-8.7
						h-8.4V70h13.4V86.6z"/>
					<path fill="#FFFFFF" d="M135.4,74.2l-19.5-34.1h6.4l16,29.1l8.2-14.1h6.2L141,74.2v12.4h-5.5V74.2z"/>
					<path fill="#FFFFFF" d="M154.8,55.1h7.8l8.7,24.7h0.1l8.5-24.7h7.7v31.5h-5.3V62.3h-0.1l-8.7,24.3h-4.5l-8.7-24.3H160v24.3
						h-5.3V55.1z"/>
				</g>
			</g>
		</g>
	</g>
</g>
</svg>
